<?xml version="1.0" encoding="UTF-8" standalone="no"?>
<!-- Created with Inkscape (http://www.inkscape.org/) -->

<svg
   version="1.1"
   id="svg12881"
   width="512px"
   height="512px"
   viewBox="0 0 2560 2560"
   sodipodi:docname="forgelabs-logo.pdf"
   xmlns:inkscape="http://www.inkscape.org/namespaces/inkscape"
   xmlns:sodipodi="http://sodipodi.sourceforge.net/DTD/sodipodi-0.dtd"
   xmlns="http://www.w3.org/2000/svg"
   xmlns:svg="http://www.w3.org/2000/svg">
  <defs
     id="defs12885">
    <clipPath
       clipPathUnits="userSpaceOnUse"
       id="clipPath12909">
      <path
         d="m 1148.388,1500.801 c -47.605,-11.94 -92.241,-32.163 -132.07,-59.341 -40.3315,-27.521 -75.8612,-62.259 -103.659,-103.473 -38.462,-57.025 -59.8399,-123.347 -69.6833,-191.388 -28.438,-196.5737 38.3228,-392.81 27.2815,-590.0589 C 866.1619,483.3787 852.3615,411.2082 817.5242,348.3324 755.4781,236.3485 644.2274,169.4676 529.2182,127.509 434.7923,93.05967 333.5306,73.48435 227.9958,71.59312 487.9484,121.7201 677.9663,346.3199 684.7525,610.975 c 1.2441,48.5195 -4.1093,97.7686 -8.9051,147.438 -4.5522,47.1454 -8.5463,94.8497 -13.3264,141.973 -11.165,110.066 -25.7956,218.976 16.7957,320.764 45.3635,108.413 138.8172,175.484 251.0685,222.804 69.5497,29.32 142.9908,48.483 218.0028,56.847 z"
         id="path12907" />
    </clipPath>
    <clipPath
       clipPathUnits="userSpaceOnUse"
       id="clipPath12915">
      <path
         d="m 1148.388,1500.801 c -47.605,-11.94 -92.241,-32.163 -132.07,-59.341 -40.3315,-27.521 -75.8612,-62.259 -103.659,-103.473 -38.462,-57.025 -59.8399,-123.347 -69.6833,-191.388 -28.438,-196.5737 38.3228,-392.81 27.2815,-590.0589 C 866.1619,483.3787 852.3615,411.2082 817.5242,348.3324 755.4781,236.3485 644.2274,169.4676 529.2182,127.509 434.7923,93.05967 333.5306,73.48435 227.9958,71.59312 487.9484,121.7201 677.9663,346.3199 684.7525,610.975 c 1.2441,48.5195 -4.1093,97.7686 -8.9051,147.438 -4.5522,47.1454 -8.5463,94.8497 -13.3264,141.973 -11.165,110.066 -25.7956,218.976 16.7957,320.764 45.3635,108.413 138.8172,175.484 251.0685,222.804 69.5497,29.32 142.9908,48.483 218.0028,56.847 z"
         id="path12913" />
    </clipPath>
    <linearGradient
       x1="0"
       y1="0"
       x2="100"
       y2="0"
       gradientUnits="userSpaceOnUse"
       gradientTransform="matrix(4.775303,15.66794,12.43123,-3.788811,449.4269,2.800172)"
       spreadMethod="pad"
       id="linearGradient12929">
      <stop
         style="stop-opacity:1;stop-color:#4e817b"
         offset="0"
         id="stop12925" />
      <stop
         style="stop-opacity:1;stop-color:#194b43"
         offset="1"
         id="stop12927" />
    </linearGradient>
    <clipPath
       clipPathUnits="userSpaceOnUse"
       id="clipPath12939">
      <path
         d="m 1399.123,1260.879 c -1.408,-29.496 -8.38,-58.307 -20.401,-84.967 -12.152,-26.948 -29.325,-51.403 -49.231,-73.643 -33.277,-37.18 -73.646,-67.497 -119.438,-87.334 C 1116.415,974.3712 1009.319,981.2789 914.335,944.4874 783.0328,893.6283 693.4141,770.86 685.0335,630.2515 c -2.2721,33.6711 -2.0943,67.2769 0.4584,100.5721 2.547,33.2204 7.4492,66.0746 13.5322,98.5804 6.0129,32.1309 13.2398,64.2618 26.1365,94.5287 13.3053,31.2256 32.3842,59.7429 52.7521,87.4493 38.7939,52.772 83.6239,103.181 144.8331,126.681 30.9539,11.884 63.5774,15.755 96.0292,20.683 29.646,4.503 59.351,9.961 89.092,15.222 55.866,9.883 112.037,19.178 166.344,35.377 43.239,12.898 85.098,30.14 124.912,51.534 z"
         id="path12937" />
    </clipPath>
    <clipPath
       clipPathUnits="userSpaceOnUse"
       id="clipPath12945">
      <path
         d="m 1399.123,1260.879 c -1.408,-29.496 -8.38,-58.307 -20.401,-84.967 -12.152,-26.948 -29.325,-51.403 -49.231,-73.643 -33.277,-37.18 -73.646,-67.497 -119.438,-87.334 C 1116.415,974.3712 1009.319,981.2789 914.335,944.4874 783.0328,893.6283 693.4141,770.86 685.0335,630.2515 c -2.2721,33.6711 -2.0943,67.2769 0.4584,100.5721 2.547,33.2204 7.4492,66.0746 13.5322,98.5804 6.0129,32.1309 13.2398,64.2618 26.1365,94.5287 13.3053,31.2256 32.3842,59.7429 52.7521,87.4493 38.7939,52.772 83.6239,103.181 144.8331,126.681 30.9539,11.884 63.5774,15.755 96.0292,20.683 29.646,4.503 59.351,9.961 89.092,15.222 55.866,9.883 112.037,19.178 166.344,35.377 43.239,12.898 85.098,30.14 124.912,51.534 z"
         id="path12943" />
    </clipPath>
    <linearGradient
       x1="0"
       y1="0"
       x2="100"
       y2="0"
       gradientUnits="userSpaceOnUse"
       gradientTransform="matrix(7.105953,6.404847,6.363115,-7.059654,685.9864,625.323)"
       spreadMethod="pad"
       id="linearGradient12959">
      <stop
         style="stop-opacity:1;stop-color:#eda443"
         offset="0"
         id="stop12955" />
      <stop
         style="stop-opacity:1;stop-color:#e2953b"
         offset="1"
         id="stop12957" />
    </linearGradient>
    <clipPath
       clipPathUnits="userSpaceOnUse"
       id="clipPath12969">
      <path
         d="m 1690.342,1848.78 c 5.798,-44.835 5.247,-89.716 -1.249,-133.473 -6.279,-42.291 -18.175,-83.979 -35.807,-123.847 -25.447,-57.535 -61.31,-108.22 -109.258,-148.048 -43.654,-36.261 -96.155,-62.233 -150.337,-81.548 -92.621,-33.018 -190.14,-48.143 -287.271,-62.428 -55.081,-8.102 -110.6767,-16.139 -161.398,-38.911 -34.7738,-15.612 -66.2687,-37.77 -92.7458,-65.308 19.7785,97.178 75.3543,182.872 155.0448,240.55 28.273,20.463 58.838,36.822 91.355,49.556 16.419,6.43 33.224,11.882 50.309,16.426 13.465,3.582 27.109,6.6 40.875,9.118 24.03,4.394 48.4,7.253 72.438,11.604 27.428,4.964 54.522,11.965 81.629,18.57 26.196,6.384 52.458,12.421 78.005,20.271 51.328,15.772 99.867,38.866 141.317,73.701 32.098,26.976 58.228,59.714 79.173,95.263 21.576,36.623 37.815,76.51 47.92,118.504 z"
         id="path12967" />
    </clipPath>
    <clipPath
       clipPathUnits="userSpaceOnUse"
       id="clipPath12975">
      <path
         d="m 1690.342,1848.78 c 5.798,-44.835 5.247,-89.716 -1.249,-133.473 -6.279,-42.291 -18.175,-83.979 -35.807,-123.847 -25.447,-57.535 -61.31,-108.22 -109.258,-148.048 -43.654,-36.261 -96.155,-62.233 -150.337,-81.548 -92.621,-33.018 -190.14,-48.143 -287.271,-62.428 -55.081,-8.102 -110.6767,-16.139 -161.398,-38.911 -34.7738,-15.612 -66.2687,-37.77 -92.7458,-65.308 19.7785,97.178 75.3543,182.872 155.0448,240.55 28.273,20.463 58.838,36.822 91.355,49.556 16.419,6.43 33.224,11.882 50.309,16.426 13.465,3.582 27.109,6.6 40.875,9.118 24.03,4.394 48.4,7.253 72.438,11.604 27.428,4.964 54.522,11.965 81.629,18.57 26.196,6.384 52.458,12.421 78.005,20.271 51.328,15.772 99.867,38.866 141.317,73.701 32.098,26.976 58.228,59.714 79.173,95.263 21.576,36.623 37.815,76.51 47.92,118.504 z"
         id="path12973" />
    </clipPath>
    <linearGradient
       x1="0"
       y1="0"
       x2="100"
       y2="0"
       gradientUnits="userSpaceOnUse"
       gradientTransform="matrix(9.500829,4.097895,3.708034,-8.596949,798.2727,1317.104)"
       spreadMethod="pad"
       id="linearGradient12989">
      <stop
         style="stop-opacity:1;stop-color:#3d7f6f"
         offset="0"
         id="stop12985" />
      <stop
         style="stop-opacity:1;stop-color:#2c3a38"
         offset="1"
         id="stop12987" />
    </linearGradient>
    <clipPath
       clipPathUnits="userSpaceOnUse"
       id="clipPath12999">
      <path
         d="m 683.9236,625.529 h 716.9175 v 635.9867 H 683.9236 Z"
         id="path12997" />
    </clipPath>
    <clipPath
       clipPathUnits="userSpaceOnUse"
       id="clipPath13009">
      <path
         d="m 660.6881,1287.286 h 1031.983 v 562.0809 H 660.6881 Z"
         id="path13007" />
    </clipPath>
    <clipPath
       clipPathUnits="userSpaceOnUse"
       id="clipPath13019">
      <path
         d="m 1048.758,1669.224 c -27.085,-5.193 -53.6518,-11.594 -79.6646,-19.138 -26.5882,-7.712 -52.7124,-16.662 -77.4484,-28.549 -48.4839,-23.301 -91.1986,-57.597 -125.8436,-99.653 -40.6331,-49.326 -68.8561,-108.059 -87.3579,-170.534 -61.9014,-209.02 -11.5037,-442.7803 2.9916,-666.1425 8.7942,-135.5119 4.0799,-269.0987 -61.0997,-376.497 C 576.6069,236.6577 509.0852,184.259 425.2991,139.9234 362.6835,106.7904 295.3969,83.61311 225.6479,71.2198 c 33.8183,13.05114 65.5335,29.833 94.7475,49.7916 33.4157,22.8292 63.8867,50.0215 88.2256,82.5614 64.6826,86.4777 78.9809,191.7205 81.2822,298.161 2.1234,98.2096 -5.4885,197.5617 -15.7285,296.8354 -11.2491,109.0559 -25.6799,217.9908 -21.6286,326.7908 3.651,98.051 21.9728,193.561 76.0167,277.362 44.278,68.658 109.076,120.69 180.7856,160.214 52.3812,28.871 108.0273,50.807 164.9041,68.143 56.8919,17.34 115.2344,30.142 174.5055,38.145 z"
         id="path13017" />
    </clipPath>
    <clipPath
       clipPathUnits="userSpaceOnUse"
       id="clipPath13025">
      <path
         d="m 1048.758,1669.224 c -27.085,-5.193 -53.6518,-11.594 -79.6646,-19.138 -26.5882,-7.712 -52.7124,-16.662 -77.4484,-28.549 -48.4839,-23.301 -91.1986,-57.597 -125.8436,-99.653 -40.6331,-49.326 -68.8561,-108.059 -87.3579,-170.534 -61.9014,-209.02 -11.5037,-442.7803 2.9916,-666.1425 8.7942,-135.5119 4.0799,-269.0987 -61.0997,-376.497 C 576.6069,236.6577 509.0852,184.259 425.2991,139.9234 362.6835,106.7904 295.3969,83.61311 225.6479,71.2198 c 33.8183,13.05114 65.5335,29.833 94.7475,49.7916 33.4157,22.8292 63.8867,50.0215 88.2256,82.5614 64.6826,86.4777 78.9809,191.7205 81.2822,298.161 2.1234,98.2096 -5.4885,197.5617 -15.7285,296.8354 -11.2491,109.0559 -25.6799,217.9908 -21.6286,326.7908 3.651,98.051 21.9728,193.561 76.0167,277.362 44.278,68.658 109.076,120.69 180.7856,160.214 52.3812,28.871 108.0273,50.807 164.9041,68.143 56.8919,17.34 115.2344,30.142 174.5055,38.145 z"
         id="path13023" />
    </clipPath>
    <linearGradient
       x1="0"
       y1="0"
       x2="100"
       y2="0"
       gradientUnits="userSpaceOnUse"
       gradientTransform="matrix(-12.52586,-11.23348,-11.63088,12.96898,1263.496,1431.896)"
       spreadMethod="pad"
       id="linearGradient13039">
      <stop
         style="stop-opacity:1;stop-color:#3f7bb0"
         offset="0"
         id="stop13035" />
      <stop
         style="stop-opacity:1;stop-color:#173459"
         offset="1"
         id="stop13037" />
    </linearGradient>
    <clipPath
       clipPathUnits="userSpaceOnUse"
       id="clipPath13049">
      <path
         d="m 585.4409,951.8581 c 25.776,31.5631 56.4505,58.6729 89.5344,82.1619 35.0895,24.912 72.7844,45.704 112.2197,63.058 54.7436,24.091 112.3825,41.306 171.6038,51.166 C 868.2481,1112.153 793.1271,1045.648 746.3189,960.2045 710.9053,895.5606 693.9079,824.7808 687.9615,751.5396 683.1597,692.3963 685.8096,632.4582 685.4507,572.9241 685.1059,515.7315 681.9528,458.7932 665.2016,404.1925 634.5307,304.2207 565.559,225.1931 482.498,170.1289 442.7735,143.7941 399.4807,122.7183 354.1315,105.9859 313.5694,91.01972 271.2598,79.4781 227.5001,71.72871 c 20.4963,8.10644 40.2986,17.56372 59.2984,28.26892 20.7975,11.71827 40.645,24.94067 59.0813,39.89857 37.2723,30.2404 68.8136,67.5796 91.9316,110.6173 39.8183,74.1278 50.6683,155.8113 52.0571,239.725 1.3967,84.3882 -6.9845,170.674 6.1499,254.6394 11.9504,76.396 39.9338,146.3804 89.4225,206.9802 z"
         id="path13047" />
    </clipPath>
    <clipPath
       clipPathUnits="userSpaceOnUse"
       id="clipPath13055">
      <path
         d="m 585.4409,951.8581 c 25.776,31.5631 56.4505,58.6729 89.5344,82.1619 35.0895,24.912 72.7844,45.704 112.2197,63.058 54.7436,24.091 112.3825,41.306 171.6038,51.166 C 868.2481,1112.153 793.1271,1045.648 746.3189,960.2045 710.9053,895.5606 693.9079,824.7808 687.9615,751.5396 683.1597,692.3963 685.8096,632.4582 685.4507,572.9241 685.1059,515.7315 681.9528,458.7932 665.2016,404.1925 634.5307,304.2207 565.559,225.1931 482.498,170.1289 442.7735,143.7941 399.4807,122.7183 354.1315,105.9859 313.5694,91.01972 271.2598,79.4781 227.5001,71.72871 c 20.4963,8.10644 40.2986,17.56372 59.2984,28.26892 20.7975,11.71827 40.645,24.94067 59.0813,39.89857 37.2723,30.2404 68.8136,67.5796 91.9316,110.6173 39.8183,74.1278 50.6683,155.8113 52.0571,239.725 1.3967,84.3882 -6.9845,170.674 6.1499,254.6394 11.9504,76.396 39.9338,146.3804 89.4225,206.9802 z"
         id="path13053" />
    </clipPath>
    <linearGradient
       x1="0"
       y1="0"
       x2="100"
       y2="0"
       gradientUnits="userSpaceOnUse"
       gradientTransform="matrix(8.220946,10.05948,9.681192,-7.911794,182.1022,107.0122)"
       spreadMethod="pad"
       id="linearGradient13069">
      <stop
         style="stop-opacity:1;stop-color:#9e322d"
         offset="0"
         id="stop13065" />
      <stop
         style="stop-opacity:1;stop-color:#dc802e"
         offset="1"
         id="stop13067" />
    </linearGradient>
    <clipPath
       clipPathUnits="userSpaceOnUse"
       id="clipPath13079">
      <path
         d="m 1691.671,1848.366 c -17.807,-90.416 -68.979,-170.856 -143.424,-225.168 -80.803,-58.951 -176.134,-80.285 -273.403,-99.018 -85.595,-16.483 -173.445,-31.452 -258.87,-49.183 -66.3618,-13.774 -132.5504,-29.837 -193.3567,-59.475 -17.0331,-8.303 -33.5444,-17.635 -49.4408,-27.948 11.7669,112.289 82.6292,209.037 184.8576,254.575 61.4639,27.379 129.7809,33.363 197.2179,42.359 69.151,9.225 137.927,21.868 206.585,33.739 72.8,12.588 145.708,24.43 213.567,54.429 42.552,18.812 81.814,44.364 116.267,75.69 z"
         id="path13077" />
    </clipPath>
    <clipPath
       clipPathUnits="userSpaceOnUse"
       id="clipPath13085">
      <path
         d="m 1691.671,1848.366 c -17.807,-90.416 -68.979,-170.856 -143.424,-225.168 -80.803,-58.951 -176.134,-80.285 -273.403,-99.018 -85.595,-16.483 -173.445,-31.452 -258.87,-49.183 -66.3618,-13.774 -132.5504,-29.837 -193.3567,-59.475 -17.0331,-8.303 -33.5444,-17.635 -49.4408,-27.948 11.7669,112.289 82.6292,209.037 184.8576,254.575 61.4639,27.379 129.7809,33.363 197.2179,42.359 69.151,9.225 137.927,21.868 206.585,33.739 72.8,12.588 145.708,24.43 213.567,54.429 42.552,18.812 81.814,44.364 116.267,75.69 z"
         id="path13083" />
    </clipPath>
    <linearGradient
       x1="0"
       y1="0"
       x2="100"
       y2="0"
       gradientUnits="userSpaceOnUse"
       gradientTransform="matrix(9.681751,1.454852,0.8833312,-5.878392,748.336,1545.228)"
       spreadMethod="pad"
       id="linearGradient13099">
      <stop
         style="stop-opacity:1;stop-color:#193d67"
         offset="0"
         id="stop13095" />
      <stop
         style="stop-opacity:1;stop-color:#132c4a"
         offset="1"
         id="stop13097" />
    </linearGradient>
    <clipPath
       clipPathUnits="userSpaceOnUse"
       id="clipPath13109">
      <path
         d="m 1398.021,1260.516 c 4.459,-81.686 -11.807,-163.179 -47.335,-236.871 -20.164,-41.8228 -46.402,-80.7026 -80.887,-111.8253 -48.348,-43.6341 -108.998,-69.1407 -171.191,-85.7253 -74.147,-19.772 -151.6429,-27.333 -223.3008,-55.5011 -43.0646,-16.9283 -83.0308,-40.9633 -118.2198,-71.1428 -0.2667,56.5579 15.4292,112.04 45.2845,160.0768 17.2143,27.6976 38.9072,52.4462 66.8921,68.9199 15.5046,9.1269 32.6251,15.4365 49.9255,21.126 13.7616,4.5257 27.6092,8.6491 41.6339,12.1925 13.7321,3.4695 27.6114,6.3684 41.6036,8.7404 14.408,2.4426 28.924,4.3226 43.408,6.3405 14.01,1.9518 28.001,4.0367 41.933,6.4842 58.42,10.2632 115.161,26.6182 165.613,57.8582 39.522,24.472 72.888,56.462 97.738,94.022 24.549,37.106 40.865,79.786 46.902,125.305 z"
         id="path13107" />
    </clipPath>
    <clipPath
       clipPathUnits="userSpaceOnUse"
       id="clipPath13115">
      <path
         d="m 1398.021,1260.516 c 4.459,-81.686 -11.807,-163.179 -47.335,-236.871 -20.164,-41.8228 -46.402,-80.7026 -80.887,-111.8253 -48.348,-43.6341 -108.998,-69.1407 -171.191,-85.7253 -74.147,-19.772 -151.6429,-27.333 -223.3008,-55.5011 -43.0646,-16.9283 -83.0308,-40.9633 -118.2198,-71.1428 -0.2667,56.5579 15.4292,112.04 45.2845,160.0768 17.2143,27.6976 38.9072,52.4462 66.8921,68.9199 15.5046,9.1269 32.6251,15.4365 49.9255,21.126 13.7616,4.5257 27.6092,8.6491 41.6339,12.1925 13.7321,3.4695 27.6114,6.3684 41.6036,8.7404 14.408,2.4426 28.924,4.3226 43.408,6.3405 14.01,1.9518 28.001,4.0367 41.933,6.4842 58.42,10.2632 115.161,26.6182 165.613,57.8582 39.522,24.472 72.888,56.462 97.738,94.022 24.549,37.106 40.865,79.786 46.902,125.305 z"
         id="path13113" />
    </clipPath>
    <linearGradient
       x1="0"
       y1="0"
       x2="100"
       y2="0"
       gradientUnits="userSpaceOnUse"
       gradientTransform="matrix(-7.240702,-4.265731,-4.120914,6.994887,1439.948,1193.27)"
       spreadMethod="pad"
       id="linearGradient13129">
      <stop
         style="stop-opacity:1;stop-color:#992819"
         offset="0"
         id="stop13125" />
      <stop
         style="stop-opacity:1;stop-color:#9e2e27"
         offset="1"
         id="stop13127" />
    </linearGradient>
  </defs>
  <sodipodi:namedview
     id="namedview12883"
     pagecolor="#ffffff"
     bordercolor="#000000"
     borderopacity="0.25"
     inkscape:showpageshadow="2"
     inkscape:pageopacity="0.0"
     inkscape:pagecheckerboard="0"
     inkscape:deskcolor="#d1d1d1"
     showgrid="false" />
  <g
     id="g12889"
     inkscape:groupmode="layer"
     inkscape:label="Page 1"
     transform="matrix(1.3333333,0,0,-1.3333333,0,2560)">
    <g
       id="g12903">
      <g
         id="g12905"
         clip-path="url(#clipPath12909)">
        <g
           id="g12911"
           clip-path="url(#clipPath12915)">
          <g
             id="g12917">
            <g
               id="g12923">
              <path
                 d="m 226.9958,70.59312 h 922.3925 V 1501.8011 H 226.9958 Z"
                 style="fill:url(#linearGradient12929);stroke:none"
                 id="path12931" />
            </g>
          </g>
        </g>
      </g>
    </g>
    <g
       id="g12933">
      <g
         id="g12935"
         clip-path="url(#clipPath12939)">
        <g
           id="g12941"
           clip-path="url(#clipPath12945)">
          <g
             id="g12947">
            <g
               id="g12953">
              <path
                 d="m 682.4455,629.2515 h 717.677 v 632.6278 h -717.677 z"
                 style="fill:url(#linearGradient12959);stroke:none"
                 id="path12961" />
            </g>
          </g>
        </g>
      </g>
    </g>
    <g
       id="g12963">
      <g
         id="g12965"
         clip-path="url(#clipPath12969)">
        <g
           id="g12971"
           clip-path="url(#clipPath12975)">
          <g
             id="g12977">
            <g
               id="g12983">
              <path
                 d="m 851.2762,1194.217 h 844.0759 v 655.5631 H 851.2762 Z"
                 style="fill:url(#linearGradient12989);stroke:none"
                 id="path12991" />
            </g>
          </g>
        </g>
      </g>
    </g>
    <g
       id="g12993">
      <g
         id="g12995"
         clip-path="url(#clipPath12999)">
        <path
           d="m 1399.123,1260.516 c 4.447,-81.685 -11.818,-163.174 -47.335,-236.871 -20.158,-41.8271 -46.388,-80.7156 -80.887,-111.8253 -48.36,-43.6104 -109.034,-69.0366 -171.191,-85.7253 -74.089,-19.8928 -151.4549,-27.8412 -223.3004,-55.5011 -75.8585,-29.205 -142.223,-79.0329 -191.4859,-144.0643 -0.0107,17.7934 1.4807,35.3696 4.3857,52.5751 2.8974,17.1602 7.2037,33.9643 12.9211,50.2215 11.7311,33.3565 29.2746,64.101 50.1886,92.1707 42.1331,56.5488 98.7538,103.2343 167.8728,128.0769 54.3049,19.5181 112.5821,23.2896 169.3771,33.3293 58.25,10.2971 114.58,27.0125 164.814,58.2865 39.478,24.577 72.877,56.506 97.739,94.022 24.572,37.081 40.896,79.765 46.901,125.305 z"
           style="fill:#9f291e;fill-opacity:1;fill-rule:nonzero;stroke:none"
           id="path13001" />
      </g>
    </g>
    <g
       id="g13003">
      <g
         id="g13005"
         clip-path="url(#clipPath13009)">
        <path
           d="m 1691.671,1848.366 c -17.812,-90.414 -68.983,-170.851 -143.424,-225.168 -80.828,-58.977 -176.11,-80.304 -273.403,-99.018 -85.554,-16.455 -173.489,-31.438 -258.87,-49.183 -66.4259,-13.806 -132.5762,-29.959 -193.3567,-59.475 -62.1122,-30.163 -117.064,-73.526 -160.9292,-127.236 8.9331,66.297 32.0944,128.69 66.8153,183.542 24.0881,38.054 53.6939,72.503 88.4451,101.301 37.2451,30.865 80.2317,55.097 127.1985,71.761 67.744,24.034 139.94,30.117 211.105,39.618 69.111,9.227 138.095,21.918 206.585,33.739 72.815,12.568 145.683,24.415 213.567,54.429 42.551,18.813 81.812,44.366 116.267,75.69 z"
           style="fill:#12345d;fill-opacity:1;fill-rule:nonzero;stroke:none"
           id="path13011" />
      </g>
    </g>
    <g
       id="g13013">
      <g
         id="g13015"
         clip-path="url(#clipPath13019)">
        <g
           id="g13021"
           clip-path="url(#clipPath13025)">
          <g
             id="g13027">
            <g
               id="g13033">
              <path
                 d="m 224.6479,70.2198 h 825.1097 v 1600.005 H 224.6479 Z"
                 style="fill:url(#linearGradient13039);stroke:none"
                 id="path13041" />
            </g>
          </g>
        </g>
      </g>
    </g>
    <g
       id="g13043">
      <g
         id="g13045"
         clip-path="url(#clipPath13049)">
        <g
           id="g13051"
           clip-path="url(#clipPath13055)">
          <g
             id="g13057">
            <g
               id="g13063">
              <path
                 d="M 226.5001,70.72871 H 959.7989 V 1149.2437 H 226.5001 Z"
                 style="fill:url(#linearGradient13069);stroke:none"
                 id="path13071" />
            </g>
          </g>
        </g>
      </g>
    </g>
    <g
       id="g13073">
      <g
         id="g13075"
         clip-path="url(#clipPath13079)">
        <g
           id="g13081"
           clip-path="url(#clipPath13085)">
          <g
             id="g13087">
            <g
               id="g13093">
              <path
                 d="m 772.1765,1386.574 h 920.4941 v 462.7925 H 772.1765 Z"
                 style="fill:url(#linearGradient13099);stroke:none"
                 id="path13101" />
            </g>
          </g>
        </g>
      </g>
    </g>
    <g
       id="g13103">
      <g
         id="g13105"
         clip-path="url(#clipPath13109)">
        <g
           id="g13111"
           clip-path="url(#clipPath13115)">
          <g
             id="g13117">
            <g
               id="g13123">
              <path
                 d="m 756.0841,698.4505 h 643.6583 v 563.0652 H 756.0841 Z"
                 style="fill:url(#linearGradient13129);stroke:none"
                 id="path13131" />
            </g>
          </g>
        </g>
      </g>
    </g>
  </g>
</svg>
